<svg width="12" height="14" viewBox="0 0 12 14" fill="none" xmlns="http://www.w3.org/2000/svg">
<path d="M4.66659 13H9.33325C10.0696 13 10.6666 12.403 10.6666 11.6667V5.27614C10.6666 5.09933 10.5963 4.92976 10.4713 4.80474L6.86185 1.19526C6.73682 1.07024 6.56725 1 6.39044 1H2.66659C1.93021 1 1.33325 1.59695 1.33325 2.33333V9.66667M1.33325 13L4.58571 9.74755M4.58571 9.74755C4.94763 10.1095 5.44763 10.3333 5.99992 10.3333C7.10449 10.3333 7.99992 9.4379 7.99992 8.33333C7.99992 7.22876 7.10449 6.33333 5.99992 6.33333C4.89535 6.33333 3.99992 7.22876 3.99992 8.33333C3.99992 8.88562 4.22378 9.38562 4.58571 9.74755Z" stroke="#783CBD" stroke-width="2" stroke-linecap="round"/>
</svg>
