<svg width="18" height="18" viewBox="0 0 18 18" fill="none" xmlns="http://www.w3.org/2000/svg">
<path d="M9 0C7.21997 0 5.47991 0.527841 3.99987 1.51677C2.51983 2.50571 1.36628 3.91131 0.685088 5.55585C0.00389956 7.20038 -0.17433 9.00998 0.172937 10.7558C0.520203 12.5016 1.37737 14.1053 2.63604 15.364C3.89472 16.6226 5.49836 17.4798 7.24419 17.8271C8.99002 18.1743 10.7996 17.9961 12.4442 17.3149C14.0887 16.6337 15.4943 15.4802 16.4832 14.0001C17.4722 12.5201 18 10.78 18 9C18 7.8181 17.7672 6.64778 17.3149 5.55585C16.8626 4.46392 16.1997 3.47177 15.364 2.63604C14.5282 1.80031 13.5361 1.13738 12.4442 0.685084C11.3522 0.232792 10.1819 0 9 0ZM9 16.2C7.57598 16.2 6.18393 15.7777 4.9999 14.9866C3.81586 14.1954 2.89302 13.0709 2.34807 11.7553C1.80312 10.4397 1.66054 8.99201 1.93835 7.59535C2.21616 6.19868 2.9019 4.91577 3.90883 3.90883C4.91577 2.90189 6.19869 2.21616 7.59535 1.93835C8.99202 1.66053 10.4397 1.80312 11.7553 2.34807C13.071 2.89302 14.1954 3.81586 14.9866 4.99989C15.7777 6.18393 16.2 7.57597 16.2 9C16.2 10.9096 15.4414 12.7409 14.0912 14.0912C12.7409 15.4414 10.9096 16.2 9 16.2ZM9 6.3C8.46599 6.3 7.94398 6.45835 7.49996 6.75503C7.05595 7.05171 6.70988 7.47339 6.50553 7.96675C6.30117 8.46011 6.2477 9.00299 6.35188 9.52674C6.45606 10.0505 6.71321 10.5316 7.09081 10.9092C7.46842 11.2868 7.94951 11.5439 8.47326 11.6481C8.99701 11.7523 9.53989 11.6988 10.0332 11.4945C10.5266 11.2901 10.9483 10.944 11.245 10.5C11.5416 10.056 11.7 9.53401 11.7 9C11.7 8.28391 11.4155 7.59716 10.9092 7.09081C10.4028 6.58446 9.71609 6.3 9 6.3ZM9 9.9C8.822 9.9 8.64799 9.84721 8.49999 9.74832C8.35198 9.64943 8.23663 9.50887 8.16851 9.34441C8.10039 9.17996 8.08257 8.999 8.1173 8.82442C8.15202 8.64983 8.23774 8.48947 8.36361 8.3636C8.48947 8.23773 8.64984 8.15202 8.82442 8.11729C8.999 8.08256 9.17997 8.10039 9.34442 8.16851C9.50887 8.23662 9.64943 8.35198 9.74833 8.49998C9.84722 8.64799 9.9 8.82199 9.9 9C9.9 9.23869 9.80518 9.46761 9.6364 9.63639C9.46762 9.80518 9.2387 9.9 9 9.9Z" fill="#FF8300"/>
</svg>
