<svg width="30" height="30" viewBox="0 0 30 30" fill="none" xmlns="http://www.w3.org/2000/svg">
<path d="M12.255 12.825C12.376 13.0117 12.5371 13.1691 12.7265 13.2858C12.9159 13.4026 13.1288 13.4757 13.35 13.5C13.5721 13.5225 13.7965 13.4951 14.0067 13.4198C14.2169 13.3446 14.4076 13.2234 14.565 13.065L16.26 11.355L18.255 14.355C18.3943 14.5558 18.5805 14.7195 18.7975 14.8319C19.0145 14.9443 19.2556 15.002 19.5 15C19.7949 15.0034 20.0834 14.9142 20.325 14.745C20.6538 14.5251 20.8824 14.1841 20.9611 13.7965C21.0398 13.4088 20.9621 13.0057 20.745 12.675L17.745 8.175C17.624 7.98832 17.4629 7.83091 17.2735 7.71417C17.0841 7.59742 16.8712 7.52426 16.65 7.5C16.4279 7.47752 16.2035 7.5049 15.9933 7.58016C15.7831 7.65541 15.5924 7.77664 15.435 7.935L13.74 9.645L11.745 6.645C11.6463 6.46108 11.5104 6.29977 11.3458 6.17139C11.1813 6.04301 10.9917 5.95038 10.7893 5.89943C10.587 5.84848 10.3761 5.84032 10.1704 5.87549C9.96469 5.91066 9.76857 5.98837 9.59459 6.10366C9.42061 6.21894 9.2726 6.36927 9.16004 6.54502C9.04747 6.72077 8.97282 6.91808 8.94086 7.12433C8.90889 7.33058 8.92032 7.54123 8.97442 7.74281C9.02851 7.94439 9.12407 8.13246 9.255 8.295L12.255 12.825ZM28.5 18H27V3H28.5C28.8978 3 29.2794 2.84196 29.5607 2.56066C29.842 2.27936 30 1.89782 30 1.5C30 1.10218 29.842 0.720644 29.5607 0.43934C29.2794 0.158035 28.8978 0 28.5 0H1.5C1.10218 0 0.720644 0.158035 0.43934 0.43934C0.158035 0.720644 0 1.10218 0 1.5C0 1.89782 0.158035 2.27936 0.43934 2.56066C0.720644 2.84196 1.10218 3 1.5 3H3V18H1.5C1.10218 18 0.720644 18.158 0.43934 18.4393C0.158035 18.7206 0 19.1022 0 19.5C0 19.8978 0.158035 20.2794 0.43934 20.5607C0.720644 20.842 1.10218 21 1.5 21H13.5V22.725L6.675 27.225C6.395 27.3983 6.17982 27.659 6.06265 27.9667C5.94549 28.2745 5.93285 28.6122 6.02669 28.9279C6.12053 29.2435 6.31564 29.5195 6.5819 29.7133C6.84816 29.907 7.17079 30.0078 7.5 30C7.7949 30.0034 8.08344 29.9142 8.325 29.745L13.5 26.325V28.5C13.5 28.8978 13.658 29.2794 13.9393 29.5607C14.2206 29.842 14.6022 30 15 30C15.3978 30 15.7794 29.842 16.0607 29.5607C16.342 29.2794 16.5 28.8978 16.5 28.5V26.325L21.675 29.745C21.9166 29.9142 22.2051 30.0034 22.5 30C22.8205 29.9975 23.1317 29.8925 23.3882 29.7002C23.6446 29.508 23.8327 29.2387 23.9249 28.9318C24.0172 28.6249 24.0087 28.2965 23.9007 27.9947C23.7928 27.693 23.591 27.4337 23.325 27.255L16.5 22.755V21H28.5C28.8978 21 29.2794 20.842 29.5607 20.5607C29.842 20.2794 30 19.8978 30 19.5C30 19.1022 29.842 18.7206 29.5607 18.4393C29.2794 18.158 28.8978 18 28.5 18ZM24 18H6V3H24V18Z" fill="#FF8300"/>
</svg>
