<svg width="89" height="113" viewBox="0 0 89 113" fill="none" xmlns="http://www.w3.org/2000/svg">
<path d="M31.1605 64.2145C29.2079 62.2618 26.0421 62.2618 24.0895 64.2145C22.1368 66.1671 22.1368 69.3329 24.0895 71.2855L31.1605 64.2145ZM38.875 79L35.3395 82.5355C37.2921 84.4882 40.4579 84.4882 42.4105 82.5355L38.875 79ZM64.9105 60.0355C66.8632 58.0829 66.8632 54.9171 64.9105 52.9645C62.9579 51.0118 59.7921 51.0118 57.8395 52.9645L64.9105 60.0355ZM78.875 28.375V95.875H88.875V28.375H78.875ZM72.625 102.125H16.375V112.125H72.625V102.125ZM10.125 95.875V28.375H0.125V95.875H10.125ZM16.375 22.125H27.625V12.125H16.375V22.125ZM61.375 22.125H72.625V12.125H61.375V22.125ZM16.375 102.125C12.9232 102.125 10.125 99.3268 10.125 95.875H0.125C0.125 104.85 7.40037 112.125 16.375 112.125V102.125ZM78.875 95.875C78.875 99.3268 76.0768 102.125 72.625 102.125V112.125C81.5996 112.125 88.875 104.85 88.875 95.875H78.875ZM88.875 28.375C88.875 19.4004 81.5996 12.125 72.625 12.125V22.125C76.0768 22.125 78.875 24.9232 78.875 28.375H88.875ZM10.125 28.375C10.125 24.9232 12.9232 22.125 16.375 22.125V12.125C7.40037 12.125 0.125 19.4004 0.125 28.375H10.125ZM24.0895 71.2855L35.3395 82.5355L42.4105 75.4645L31.1605 64.2145L24.0895 71.2855ZM42.4105 82.5355L64.9105 60.0355L57.8395 52.9645L35.3395 75.4645L42.4105 82.5355ZM38.875 10.875H50.125V0.875H38.875V10.875ZM50.125 23.375H38.875V33.375H50.125V23.375ZM38.875 23.375C35.4232 23.375 32.625 20.5768 32.625 17.125H22.625C22.625 26.0996 29.9004 33.375 38.875 33.375V23.375ZM56.375 17.125C56.375 20.5768 53.5768 23.375 50.125 23.375V33.375C59.0996 33.375 66.375 26.0996 66.375 17.125H56.375ZM50.125 10.875C53.5768 10.875 56.375 13.6732 56.375 17.125H66.375C66.375 8.15037 59.0996 0.875 50.125 0.875V10.875ZM38.875 0.875C29.9004 0.875 22.625 8.15037 22.625 17.125H32.625C32.625 13.6732 35.4232 10.875 38.875 10.875V0.875Z" fill="#0F172A"/>
</svg>
